<?xml version="1.0" encoding="utf-8"?><svg fill="none" height="115" viewBox="0 0 110 115" width="110" xmlns="http://www.w3.org/2000/svg" xmlns:xlink="http://www.w3.org/1999/xlink"><mask id="a" height="78" maskUnits="userSpaceOnUse" width="78" x="16" y="0"><path clip-rule="evenodd" d="m16.8124.277344h76.3513v77.064656h-76.3513z" fill="#fff" fill-rule="evenodd"/></mask><mask id="b" height="26" maskUnits="userSpaceOnUse" width="19" x="0" y="89"><path clip-rule="evenodd" d="m0 89.3677h18.4641v25.4733h-18.4641z" fill="#fff" fill-rule="evenodd"/></mask><mask id="c" height="19" maskUnits="userSpaceOnUse" width="15" x="57" y="96"><path clip-rule="evenodd" d="m57.8381 96.6147h13.9557v18.2253h-13.9557z" fill="#fff" fill-rule="evenodd"/></mask><mask id="d" height="19" maskUnits="userSpaceOnUse" width="14" x="96" y="96"><path clip-rule="evenodd" d="m96.0205 96.6147h13.9555v18.2253h-13.9555z" fill="#fff" fill-rule="evenodd"/></mask><g mask="url(#a)"><path clip-rule="evenodd" d="m86.7685 57.3439c0 7.5022-6.0682 13.5864-13.5507 13.5864h-16.7482c-1.1796 0-2.1317-.9549-2.1317-2.1373v-26.3605c0-1.1825.9521-2.1371 2.1317-2.1371h16.741c7.4897 0 13.5579 6.0842 13.5579 13.5933zm-38.9751 11.4491c0 1.1824-.9521 2.1373-2.1317 2.1373h-8.8677c-7.5038 0-13.5864-6.0986-13.5864-13.6218v-37.0043c0-7.5162 6.0826-13.61457 13.5864-13.61457h8.8677c1.1796 0 2.1317.95436 2.1317 2.13706zm6.5445-59.96631c0-1.1827.9521-2.13706 2.1317-2.13706h6.9778c7.6102 0 13.7566 6.31917 13.4938 14.02057-.2559 7.3381-6.4947 13.0521-13.8136 13.0521h-6.658c-1.1796 0-2.1317-.9546-2.1317-2.1373zm23.1433 25.52691c3.6171-3.6121 5.8624-8.6133 5.8624-14.1278 0-11.00007-8.9249-19.948456-19.8962-19.948456h-26.6534c-11.021 0-19.9816 8.984136-19.9816 20.026856v37.0043c0 11.05 8.9606 20.0335 19.9816 20.0335h36.4238c10.9997 0 19.9459-8.9694 19.9459-19.9981v-3.4552c0-9.5611-6.7293-17.5759-15.6825-19.5351z" fill="#fff" fill-rule="evenodd"/></g><g mask="url(#b)"><path clip-rule="evenodd" d="m15.2437 105.728c0-3.337-2.648-5.9557-5.97591-5.9557-3.39922 0-5.94 2.5117-5.94 5.9557s2.54078 5.955 5.94 5.955c3.32791 0 5.97591-2.618 5.97591-5.955zm3.2204 0c0 5.058-3.7571 9.113-8.51641 9.113-3.04158 0-5.33168-1.435-6.6199-3.875v3.516h-3.32791207v-25.1143h3.32791207v11.1223c1.28822-2.44 3.57832-3.8751 6.6199-3.8751 4.75931 0 8.51641 4.0541 8.51641 9.1131z" fill="#fff" fill-rule="evenodd"/></g><path clip-rule="evenodd" d="m22.9023 105.763c0 3.337 2.5048 5.92 5.7968 5.92 3.2564 0 5.7969-2.583 5.7969-5.92 0-3.408-2.5405-5.9912-5.7969-5.9912-3.292 0-5.7968 2.5832-5.7968 5.9912zm14.8143 0c0 5.131-3.9719 9.077-9.0175 9.077-5.0813 0-9.0172-3.946-9.0172-9.077 0-5.166 3.9359-9.1483 9.0172-9.1483 5.0456 0 9.0175 3.9823 9.0175 9.1483z" fill="#fff" fill-rule="evenodd"/><path clip-rule="evenodd" d="m42.1904 105.763c0 3.337 2.5048 5.92 5.7968 5.92 3.2563 0 5.7968-2.583 5.7968-5.92 0-3.408-2.5405-5.9912-5.7968-5.9912-3.292 0-5.7968 2.5832-5.7968 5.9912zm14.8143 0c0 5.131-3.9719 9.077-9.0175 9.077-5.0813 0-9.0172-3.946-9.0172-9.077 0-5.166 3.9359-9.1483 9.0172-9.1483 5.0456 0 9.0175 3.9823 9.0175 9.1483z" fill="#fff" fill-rule="evenodd"/><g mask="url(#c)"><path clip-rule="evenodd" d="m57.8381 112.329 1.3598-2.476c1.3598 1.328 3.8647 2.225 5.8685 2.225 2.0396 0 3.3994-1.041 3.3994-2.368 0-3.911-10.0909-1.292-10.0909-7.75 0-3.1927 2.6836-5.3453 6.6199-5.3453 2.3617 0 4.8308.7532 6.3338 2.2244l-1.4314 2.5119c-1.2882-1.256-3.6499-1.938-5.2244-1.938-1.825 0-3.0059.897-3.0059 2.26 0 3.552 10.1269 1.292 10.1269 7.929 0 3.014-2.7196 5.238-6.6918 5.238-2.7193 0-5.5821-1.004-7.2639-2.511z" fill="#fff" fill-rule="evenodd"/></g><path clip-rule="evenodd" d="m83.6388 114.338c-.5008.216-1.2166.359-1.8965.359-3.6856 0-6.2979-2.368-6.2979-6.53v-8.036h-3.3992v-3.1574h3.3992v-4.7358h3.2922v4.7358h4.7234v3.1574h-4.7234v7.893c0 2.26 1.5027 3.588 3.4352 3.588.3936 0 .9303-.072 1.2882-.18z" fill="#fff" fill-rule="evenodd"/><path clip-rule="evenodd" d="m95.9842 97.0093-.3579 3.2287c-.6083-.2866-1.3598-.4301-2.0753-.4301-2.147 0-4.2942 1.7941-4.2942 4.8071v9.867h-3.3276v-17.5084h3.3276v2.7265c.7874-1.8298 2.7912-3.0854 4.5805-3.0854.8587 0 1.6459.1793 2.1469.3946z" fill="#fff" fill-rule="evenodd"/><g mask="url(#d)"><path clip-rule="evenodd" d="m96.0205 112.329 1.3598-2.476c1.3598 1.328 3.8647 2.225 5.8687 2.225 2.039 0 3.399-1.041 3.399-2.368 0-3.911-10.0908-1.292-10.0908-7.75 0-3.1927 2.6837-5.3453 6.6198-5.3453 2.362 0 4.831.7532 6.334 2.2244l-1.431 2.5119c-1.289-1.256-3.65-1.938-5.225-1.938-1.825 0-3.0058.897-3.0058 2.26 0 3.552 10.1268 1.292 10.1268 7.929 0 3.014-2.719 5.238-6.691 5.238-2.72 0-5.5827-1.004-7.2645-2.511z" fill="#fff" fill-rule="evenodd"/></g><path clip-rule="evenodd" d="m3.64985 105.763c0 3.337 2.50484 5.92 5.79683 5.92 3.25632 0 5.79682-2.583 5.79682-5.92 0-3.408-2.5405-5.9912-5.79682-5.9912-3.29199 0-5.79683 2.5832-5.79683 5.9912zm14.81435 0c0 5.131-3.9719 9.077-9.01752 9.077-5.08128 0-9.017237-3.946-9.017237-9.077 0-5.166 3.935957-9.1483 9.017237-9.1483 5.04562 0 9.01752 3.9823 9.01752 9.1483z" fill="#fff" fill-rule="evenodd"/></svg>